# xmcd
# 
# Track frame offsets:
#     150
#     17992
#     34008
#     45871
#     65798
#     79619
#     96225
#     109802
#     124560
#     144321
#     161528
#     182234
#     203619
# 
# Disc length: 3042
# 
# Revision: 2
# Processed by: cddbd v1.5.2PL0 Copyright (c) Steve Scherf et al.
# Submitted via: fre:ac v1.0.31
# 
DISCID=a60be00d
DTITLE=Tom Jones - Spirit In The Room
DYEAR=2013
DGENRE=Rock/Pop
TTITLE0=Tower Of Song
TTITLE1=Bad As Me
TTITLE2=Traveling Shoes
TTITLE3=All Blues Hail Mary
TTITLE4=Lone Piligrim
TTITLE5=Hit Or Miss
TTITLE6=Dimming Of The Day
TTITLE7=( I Want To ) Come Home
TTITLE8=Love And Blessings
TTITLE9=Soul Of A Man
TTITLE10=Just Dropped In
TTITLE11=Charlie Darwin
TTITLE12=When The Deal Goes Down
EXTD=
EXTT0=when i grabbed this Cd song 8 is titled wrong it should be ( I Want To ) Come Home  
EXTT1=
EXTT2=
EXTT3=
EXTT4=
EXTT5=
EXTT6=
EXTT7=
EXTT8=
EXTT9=
EXTT10=
EXTT11=
EXTT12=
PLAYORDER=
